<svg width="16" height="16" viewBox="0 0 16 16" fill="none" xmlns="http://www.w3.org/2000/svg">
<g id="Frame" clip-path="url(#clip0_509_16148)">
<path id="Vector" d="M6.22829 12.5213L4.94039 12.1762L5.46537 10.217C4.67263 9.92495 3.94424 9.49989 3.30728 8.96895L1.87172 10.4045L0.928918 9.46169L2.36447 8.02615C1.57038 7.07355 1.01326 5.91646 0.783691 4.64547L2.09574 4.40692C2.60176 7.20842 5.05271 9.33342 7.99997 9.33342C10.9472 9.33342 13.3982 7.20842 13.9042 4.40692L15.2163 4.64547C14.9867 5.91646 14.4296 7.07355 13.6355 8.02615L15.071 9.46169L14.1282 10.4045L12.6927 8.96895C12.0557 9.49989 11.3273 9.92495 10.5346 10.217L11.0596 12.1762L9.7717 12.5213L9.2465 10.5612C8.84137 10.6306 8.4249 10.6668 7.99997 10.6668C7.5751 10.6668 7.15857 10.6306 6.7535 10.5612L6.22829 12.5213Z" fill="#969390"/>
</g>
<defs>
<clipPath id="clip0_509_16148">
<rect width="16" height="16" fill="white"/>
</clipPath>
</defs>
</svg>
