<svg width="16" height="16" viewBox="0 0 16 16" fill="none" xmlns="http://www.w3.org/2000/svg">
<g id="Frame" clip-path="url(#clip0_509_16162)">
<path id="Vector" d="M8.00004 2C11.5948 2 14.5854 4.58651 15.2124 8C14.5854 11.4135 11.5948 14 8.00004 14C4.40525 14 1.4146 11.4135 0.787598 8C1.4146 4.58651 4.40525 2 8.00004 2ZM8.00004 12.6667C10.8238 12.6667 13.24 10.7013 13.8516 8C13.24 5.29869 10.8238 3.33333 8.00004 3.33333C5.17624 3.33333 2.75998 5.29869 2.14836 8C2.75998 10.7013 5.17624 12.6667 8.00004 12.6667ZM8.00004 11C6.34316 11 5.00001 9.65687 5.00001 8C5.00001 6.34315 6.34316 5 8.00004 5C9.65684 5 11 6.34315 11 8C11 9.65687 9.65684 11 8.00004 11ZM8.00004 9.66667C8.92051 9.66667 9.66671 8.92047 9.66671 8C9.66671 7.07953 8.92051 6.33333 8.00004 6.33333C7.07957 6.33333 6.33334 7.07953 6.33334 8C6.33334 8.92047 7.07957 9.66667 8.00004 9.66667Z" fill="#969390"/>
</g>
<defs>
<clipPath id="clip0_509_16162">
<rect width="16" height="16" fill="white"/>
</clipPath>
</defs>
</svg>
